<?xml version="1.0" standalone="no"?>
<!DOCTYPE svg PUBLIC "-//W3C//DTD SVG 20010904//EN"
 "http://www.w3.org/TR/2001/REC-SVG-20010904/DTD/svg10.dtd">
<svg version="1.0" xmlns="http://www.w3.org/2000/svg"
 width="315.000000pt" height="315.000000pt" viewBox="0 0 315.000000 315.000000"
 preserveAspectRatio="xMidYMid meet">
<metadata>
Created by potrace 1.11, written by Peter Selinger 2001-2013
</metadata>
<g transform="translate(0.000000,315.000000) scale(0.100000,-0.100000)"
fill="#000000" stroke="none">
<path d="M0 1575 l0 -1575 1575 0 1575 0 0 1575 0 1575 -1575 0 -1575 0 0
-1575z m557 -463 c76 -39 113 -111 113 -216 0 -70 -22 -126 -66 -169 -51 -52
-81 -61 -201 -65 l-113 -4 0 242 0 243 113 -5 c89 -4 120 -9 154 -26z m803 11
c0 -16 -9 -18 -80 -15 l-80 4 0 -96 0 -96 70 0 c56 0 70 -3 70 -15 0 -12 -14
-15 -70 -15 l-70 0 0 -115 0 -115 -40 0 -40 0 0 240 0 240 120 0 c108 0 120
-2 120 -17z m1430 -48 c0 -32 2 -35 30 -35 23 0 30 -4 30 -20 0 -16 -7 -20
-30 -20 l-31 0 3 -147 3 -148 28 0 c22 1 27 -3 25 -20 -2 -16 -11 -21 -49 -23
-76 -5 -79 3 -79 184 l0 154 -31 0 c-24 0 -30 4 -27 18 2 10 14 18 31 20 24 3
27 8 27 38 0 32 2 34 35 34 33 0 35 -2 35 -35z m-1802 -55 c36 -22 71 -88 72
-132 l0 -28 -125 0 -125 0 0 -36 c0 -54 28 -104 66 -120 45 -19 73 -18 119 6
48 25 45 25 45 -4 0 -33 -51 -49 -141 -44 -81 4 -113 24 -147 89 -20 37 -23
55 -19 111 5 77 27 122 77 155 44 30 131 32 178 3z m652 1 c51 -27 80 -89 80
-168 0 -75 -16 -117 -59 -158 -26 -24 -41 -30 -94 -33 -80 -4 -123 17 -157 78
-20 36 -25 59 -25 115 0 80 25 133 79 166 41 25 129 25 176 0z m230 -3 l0 -22
20 22 c29 31 70 30 70 -2 0 -18 -8 -25 -32 -32 -50 -14 -58 -42 -58 -191 l0
-133 -35 0 -35 0 0 190 0 190 35 0 c29 0 35 -4 35 -22z m380 5 c33 -19 65 -73
74 -125 l7 -38 -131 0 c-128 0 -130 0 -130 -23 0 -113 85 -172 184 -128 25 11
46 18 46 16 0 -2 3 -11 6 -19 14 -36 -134 -62 -203 -35 -71 27 -106 87 -105
181 0 82 32 146 84 171 43 22 132 22 168 0z m344 7 c27 -10 31 -17 18 -37 -6
-9 -19 -8 -55 5 -43 15 -50 16 -75 2 -20 -12 -27 -24 -27 -45 0 -27 7 -34 69
-65 78 -41 106 -70 106 -112 0 -71 -54 -118 -136 -118 -95 0 -141 27 -115 68
6 10 10 10 21 -2 16 -20 85 -39 111 -31 11 4 27 17 35 30 25 39 9 64 -61 96
-75 34 -105 68 -105 118 1 39 12 58 50 84 28 19 122 23 164 7z"/>
<path d="M370 899 l0 -202 55 6 c71 7 111 32 136 83 73 152 -4 314 -151 314
l-40 0 0 -201z"/>
<path d="M850 990 c-24 -24 -43 -68 -36 -85 2 -7 17 -11 33 -10 15 1 52 3 81
3 49 2 52 4 52 28 0 15 -12 38 -29 55 -35 34 -72 38 -101 9z"/>
<path d="M1503 988 c-30 -32 -43 -71 -43 -131 0 -126 58 -195 131 -157 61 33
76 196 25 273 -28 42 -81 49 -113 15z"/>
<path d="M2115 988 c-14 -13 -29 -38 -34 -55 l-10 -33 90 0 c54 0 89 4 89 10
0 6 -6 26 -14 45 -24 57 -76 71 -121 33z"/>
</g>
</svg>
